<?xml version="1.0" standalone="no"?>
<!DOCTYPE svg PUBLIC "-//W3C//DTD SVG 20010904//EN"
 "http://www.w3.org/TR/2001/REC-SVG-20010904/DTD/svg10.dtd">
<svg version="1.0" xmlns="http://www.w3.org/2000/svg"
 width="700.000000pt" height="700.000000pt" viewBox="0 0 700.000000 700.000000"
 preserveAspectRatio="xMidYMid meet">
<metadata>
Created by potrace 1.14, written by Peter Selinger 2001-2017
</metadata>
<g transform="translate(0.000000,700.000000) scale(0.100000,-0.100000)"
fill="#000000" stroke="none">
<path d="M6010 6234 c-91 -47 -262 -136 -380 -197 -321 -165 -323 -166 -326
-170 -2 -2 -15 -50 -29 -108 -14 -57 -28 -111 -31 -120 -5 -18 43 -73 86 -100
52 -32 88 -39 125 -23 19 7 37 14 41 14 9 0 -1 -155 -35 -515 -10 -110 -19
-207 -19 -215 0 -8 -3 -44 -6 -80 -3 -36 -8 -99 -11 -140 -6 -98 -33 -385 -45
-480 -8 -69 -7 -78 13 -107 12 -18 39 -40 59 -49 33 -15 43 -15 84 -4 45 13
77 38 217 170 l47 45 10 135 c5 74 17 200 25 280 8 80 19 267 25 415 6 149 15
295 20 325 5 30 12 128 16 217 l7 162 71 42 c39 24 80 52 92 64 11 11 48 39
82 60 70 46 80 62 135 233 34 105 36 115 22 141 -13 26 -100 91 -121 91 -5 0
-83 -39 -174 -86z m-680 -634 c0 -5 -5 -10 -11 -10 -5 0 -7 5 -4 10 3 6 8 10
11 10 2 0 4 -4 4 -10z"/>
<path d="M5039 5786 c-36 -24 -193 -120 -258 -158 -75 -43 -360 -214 -426
-255 -38 -24 -93 -55 -122 -69 l-51 -25 -36 -147 c-23 -95 -32 -150 -26 -157
5 -6 34 -24 64 -39 65 -33 100 -29 152 16 l34 30 1 -23 c1 -13 1 -28 0 -33 -1
-5 -4 -32 -6 -60 -3 -28 -16 -168 -30 -311 -14 -143 -27 -285 -30 -315 -11
-133 -18 -206 -34 -367 l-18 -171 -33 -29 c-148 -123 -198 -171 -217 -207 -13
-22 -23 -45 -23 -51 0 -6 -25 -86 -55 -179 -30 -92 -55 -175 -55 -182 0 -8 7
-17 15 -21 9 -3 22 -18 31 -34 8 -17 23 -29 34 -29 15 0 167 103 190 129 14
16 135 114 210 171 47 35 103 81 125 101 22 21 81 70 130 110 191 155 325 269
372 318 13 13 32 56 43 95 12 39 29 98 39 131 33 104 33 120 5 146 -14 13 -34
38 -45 56 -24 39 -33 40 -57 12 -9 -11 -46 -42 -82 -69 -36 -27 -96 -72 -133
-100 l-68 -51 5 33 c12 78 33 417 46 755 9 227 17 329 26 345 3 4 53 39 112
79 191 128 193 130 295 332 21 43 41 95 44 116 5 37 3 40 -55 85 -33 25 -64
46 -69 46 -5 0 -24 -11 -44 -24z"/>
<path d="M2702 5383 c-17 -16 -62 -67 -99 -114 -68 -85 -76 -96 -133 -177 -54
-76 -144 -233 -212 -372 -91 -186 -102 -212 -112 -267 -8 -40 -58 -193 -63
-193 -3 0 -2 8 2 18 3 9 9 80 12 157 l5 140 -21 -19 c-23 -21 -30 -32 -74
-123 -16 -32 -32 -65 -37 -73 -66 -112 -102 -178 -106 -194 -2 -10 -10 -26
-17 -35 -8 -9 -17 -23 -21 -31 -4 -8 -16 -31 -26 -50 l-19 -35 6 40 c3 22 3
38 0 35 -6 -6 -64 -106 -80 -140 -6 -14 -15 -28 -20 -31 -5 -3 -12 -30 -16
-60 -5 -30 -17 -74 -28 -99 -22 -49 -36 -82 -37 -90 -7 -32 -51 -120 -61 -120
-8 0 -16 -14 -20 -30 -7 -32 -22 -39 -31 -15 -4 8 -12 15 -19 15 -7 0 -18 14
-24 31 -6 17 -15 28 -20 25 -23 -15 -42 7 -40 45 4 44 -4 57 -25 40 -12 -10
-19 -8 -38 14 -13 15 -59 64 -103 109 -44 45 -129 142 -190 216 -111 135 -405
440 -425 440 -5 0 -10 -17 -10 -39 0 -42 17 -101 30 -101 11 0 53 -81 46 -88
-16 -16 -73 42 -210 212 -42 53 -127 136 -139 136 -5 0 -34 15 -65 34 -32 19
-75 37 -97 41 -67 11 -155 18 -155 12 0 -2 24 -17 54 -31 30 -15 66 -43 82
-63 16 -21 35 -45 44 -54 14 -15 29 -34 82 -104 33 -44 50 -64 76 -93 12 -14
22 -28 22 -31 0 -3 11 -19 25 -35 14 -16 25 -32 25 -35 0 -6 19 -29 73 -91 33
-36 26 -42 -9 -7 -65 63 -98 87 -119 87 -17 0 -88 55 -161 125 -53 50 -79 63
-56 28 13 -21 67 -86 94 -116 16 -16 28 -31 28 -34 0 -3 10 -15 22 -27 48 -46
80 -94 112 -169 19 -43 42 -90 52 -105 10 -15 19 -29 19 -32 0 -3 12 -21 28
-41 15 -20 27 -41 27 -47 0 -6 21 -23 46 -39 76 -47 264 -226 264 -253 0 -3
54 -62 121 -131 84 -86 128 -139 144 -175 12 -27 35 -61 51 -74 l30 -25 -21
-60 c-12 -33 -21 -62 -21 -65 0 -3 -11 -39 -23 -80 -13 -41 -23 -77 -23 -80 0
-3 -4 -13 -10 -23 -5 -10 -11 -26 -13 -35 -11 -49 -72 -257 -85 -287 -4 -11
-16 -47 -25 -80 -31 -110 -59 -190 -73 -213 -8 -12 -11 -22 -7 -22 3 0 -3 -13
-14 -29 -12 -16 -21 -33 -21 -38 0 -5 -8 -20 -17 -33 -21 -29 -29 -51 -85
-220 -22 -69 -47 -138 -54 -155 -7 -16 -16 -43 -20 -60 -4 -16 -10 -34 -14
-40 -7 -10 -32 -93 -29 -97 1 -3 -27 -79 -42 -113 -7 -17 -19 -59 -35 -120
-35 -136 -50 -247 -38 -280 9 -21 13 -14 99 150 37 72 73 137 79 145 6 8 16
24 22 35 39 71 97 180 124 233 18 35 34 62 36 60 4 -5 -29 -94 -39 -104 -4 -4
-7 -14 -7 -21 0 -8 -16 -42 -36 -76 -20 -34 -37 -66 -38 -72 -1 -5 -14 -35
-29 -67 -40 -85 -61 -304 -26 -282 5 3 9 13 9 22 0 9 13 45 30 80 16 34 27 62
25 62 -6 0 57 114 66 120 4 3 13 18 18 33 6 16 15 26 21 22 5 -3 17 7 26 22
27 43 46 63 55 58 7 -5 -98 -225 -113 -236 -5 -3 -11 -16 -13 -29 -2 -13 -8
-26 -13 -29 -4 -3 -14 -21 -21 -38 -8 -18 -17 -33 -22 -33 -5 0 -9 -6 -9 -12
-1 -7 -9 -31 -20 -53 -23 -47 -25 -62 -7 -46 11 9 11 -1 0 -56 -19 -92 -10
-109 28 -52 17 24 35 53 40 64 6 11 24 43 40 70 16 28 34 62 40 78 6 15 15 27
20 27 5 0 9 4 9 9 0 9 51 107 175 331 97 176 110 203 136 265 13 33 24 62 24
65 0 3 10 25 22 50 11 25 31 72 44 105 13 33 30 70 37 83 8 12 11 22 8 22 -4
0 -1 12 8 28 22 41 46 99 46 110 0 5 7 15 15 22 15 13 56 94 99 200 30 72 37
89 60 142 9 20 16 42 16 50 0 7 5 4 11 -7 21 -39 64 -100 84 -121 11 -12 49
-54 85 -93 36 -40 76 -85 90 -100 14 -16 36 -42 50 -60 35 -45 126 -145 180
-196 25 -24 103 -100 173 -168 l128 -124 -51 -38 c-29 -21 -86 -77 -127 -124
-81 -92 -289 -365 -351 -459 -20 -31 -40 -59 -43 -62 -4 -3 -19 -27 -34 -55
-16 -27 -49 -75 -74 -105 -68 -81 -75 -90 -63 -90 12 0 160 114 313 242 59 48
112 88 117 88 6 0 44 30 84 68 40 37 122 105 182 152 60 47 143 111 184 143
66 52 79 58 107 53 31 -6 118 -73 177 -136 l27 -29 -126 -128 c-250 -255 -431
-458 -419 -470 9 -9 108 52 360 221 135 90 274 180 309 200 l65 36 93 -86
c136 -125 229 -184 201 -126 -19 39 -8 53 58 77 92 33 701 236 720 240 55 11
208 64 278 96 45 22 87 39 92 39 6 0 18 4 28 9 54 28 167 67 292 101 59 15
287 100 364 134 17 8 58 26 91 41 84 37 129 59 135 66 3 3 14 9 25 14 16 7 11
10 -30 18 -45 9 -164 1 -265 -17 -14 -3 -68 -12 -120 -21 -52 -9 -122 -23
-155 -30 -33 -8 -78 -17 -100 -21 -22 -3 -80 -15 -130 -26 -49 -10 -121 -26
-160 -34 -112 -24 -506 -184 -739 -301 -170 -85 -357 -222 -395 -290 -5 -10
-11 -16 -13 -13 -4 5 -89 122 -93 128 -6 8 -34 -13 -49 -38 -9 -17 -21 -30
-26 -30 -8 0 -7 11 4 55 1 6 7 19 13 30 6 11 9 33 6 48 -3 17 -1 27 7 27 6 0
69 57 138 128 149 150 226 213 382 315 262 170 546 305 795 376 61 18 130 35
155 38 41 6 93 26 225 88 28 13 81 38 120 55 38 17 77 37 86 46 9 8 81 36 160
63 79 26 196 69 259 93 63 25 151 59 195 76 44 17 154 60 245 95 91 36 177 68
193 72 51 13 39 25 -26 25 -218 0 -741 -75 -947 -137 -525 -156 -783 -250
-1000 -366 -192 -103 -475 -268 -490 -287 -3 -3 -34 -25 -70 -49 -64 -44 -151
-112 -200 -158 -68 -64 -106 -94 -182 -144 -46 -30 -84 -57 -86 -61 -5 -10
-42 -10 -42 0 0 4 -31 46 -70 92 -38 46 -70 87 -70 90 1 10 376 260 445 296
39 21 129 73 200 117 119 72 163 104 235 166 14 12 36 32 50 44 61 53 246 187
360 261 123 81 300 182 300 172 0 -3 -75 -56 -167 -117 -130 -86 -309 -214
-372 -266 -2 -1 -2 -5 1 -8 7 -7 365 210 418 255 49 41 137 90 162 90 8 0 18
4 24 9 17 15 267 105 859 307 184 63 518 169 618 195 182 49 927 297 927 310
0 8 -74 20 -92 15 -7 -3 -58 -7 -113 -11 -211 -13 -557 -59 -715 -95 -202 -46
-205 -45 -85 14 61 29 202 99 315 154 113 55 228 110 255 122 l50 21 -65 -5
c-36 -2 -112 -18 -169 -35 -58 -17 -106 -29 -108 -28 -1 2 54 31 123 66 68 35
123 66 120 68 -9 9 -265 -59 -421 -112 -38 -13 -171 -55 -295 -95 -265 -84
-511 -173 -625 -225 -16 -8 -93 -41 -170 -74 -77 -32 -165 -71 -197 -85 -62
-28 -413 -215 -576 -308 -57 -32 -106 -58 -108 -58 -3 0 -17 -8 -32 -19 -15
-10 -65 -40 -112 -66 -308 -172 -821 -539 -1020 -728 -122 -116 -160 -147
-179 -147 -18 0 -62 52 -230 273 -25 33 -64 75 -88 94 -58 47 -125 151 -156
240 -16 48 -49 107 -98 175 -80 113 -89 123 -105 123 -7 0 -33 29 -59 63 -27
35 -54 66 -62 69 -7 3 -13 10 -13 17 -1 6 -23 35 -49 65 l-48 54 17 56 c10 31
23 79 29 106 15 63 85 202 117 232 20 18 24 32 24 78 0 31 7 72 15 92 14 34
49 73 66 73 4 0 15 23 24 50 9 28 28 64 42 80 18 22 27 50 35 102 10 74 19
100 46 130 12 15 41 84 56 133 1 6 17 40 34 76 18 36 32 69 32 72 0 3 15 39
34 79 31 66 47 104 51 118 0 3 27 84 60 180 33 96 60 177 60 180 0 3 11 31 23
62 23 60 62 207 62 230 -1 7 -15 -3 -32 -22 -19 -22 -28 -27 -23 -15 5 16 26
80 35 110 4 15 35 85 51 118 23 44 15 47 -29 10z m298 -3881 c14 -7 34 -20 45
-28 20 -15 20 -15 1 -30 -11 -8 -23 -14 -27 -14 -3 0 -24 21 -45 48 -60 75
-61 78 -29 56 17 -11 41 -25 55 -32z"/>
<path d="M3943 5129 c-43 -23 -90 -50 -105 -60 -14 -11 -29 -19 -32 -19 -11 0
-292 -164 -321 -188 -27 -21 -84 -56 -367 -222 -42 -24 -81 -55 -87 -68 -13
-27 -37 -172 -56 -327 -3 -27 -15 -108 -25 -180 -26 -176 -25 -167 -65 -450
-19 -137 -39 -266 -45 -285 -8 -30 -38 -248 -55 -400 -13 -111 -27 -211 -40
-285 -17 -97 -23 -145 -45 -340 -9 -85 -9 -91 15 -130 33 -56 69 -95 88 -95
15 0 125 148 242 323 57 86 59 91 65 175 4 48 5 91 3 95 -5 8 8 154 29 332 7
55 11 103 10 107 -1 3 5 48 14 98 8 51 13 95 10 97 -2 2 0 21 5 41 5 20 11 73
15 117 3 44 8 83 10 87 3 4 7 54 9 110 l5 103 37 33 c54 47 183 142 240 176
123 75 154 118 194 263 12 43 30 94 40 113 30 55 25 84 -21 120 l-39 31 -98
-57 c-54 -31 -120 -70 -146 -85 -27 -16 -50 -29 -53 -29 -6 0 -5 41 2 65 8 30
126 105 332 209 99 50 107 58 272 271 38 50 76 97 84 105 7 8 21 30 30 48 16
31 16 35 2 55 -9 12 -26 37 -39 54 -12 18 -25 33 -29 33 -3 0 -42 -19 -85 -41z
m-380 -774 c-3 -9 -8 -14 -10 -11 -3 3 -2 9 2 15 9 16 15 13 8 -4z"/>
<path d="M4445 1988 c-142 -49 -527 -233 -607 -289 -14 -11 -29 -19 -32 -19
-17 0 -296 -197 -336 -238 -23 -24 -21 -23 35 7 33 19 123 67 200 109 77 41
217 119 310 172 94 54 236 133 318 175 81 43 147 82 147 86 0 5 -1 9 -2 8 -2
0 -16 -5 -33 -11z"/>
<path d="M861 1264 c0 -11 3 -14 6 -6 3 7 2 16 -1 19 -3 4 -6 -2 -5 -13z"/>
</g>
</svg>
